<?xml version="1.0" standalone="no"?>
<!DOCTYPE svg PUBLIC "-//W3C//DTD SVG 20010904//EN"
 "http://www.w3.org/TR/2001/REC-SVG-20010904/DTD/svg10.dtd">
<svg version="1.0" xmlns="http://www.w3.org/2000/svg"
 width="260.000000pt" height="260.000000pt" viewBox="0 0 260.000000 260.000000"
 preserveAspectRatio="xMidYMid meet">
<metadata>
Created by potrace 1.11, written by Peter Selinger 2001-2013
</metadata>
<g transform="translate(0.000000,260.000000) scale(0.100000,-0.100000)"
fill="#000000" stroke="none">
<path d="M617 2009 c-79 -59 -72 -175 14 -221 42 -22 71 -23 115 -2 88 42 98
160 18 223 -36 28 -109 28 -147 0z"/>
<path d="M1219 1991 c-33 -33 -39 -45 -39 -82 0 -55 27 -101 73 -122 43 -21
70 -21 105 -3 131 68 92 246 -53 246 -42 0 -52 -5 -86 -39z"/>
<path d="M1859 2013 c-93 -57 -74 -203 30 -234 51 -15 87 -5 127 35 42 42 52
91 28 141 -32 68 -123 97 -185 58z"/>
<path d="M645 1406 c-130 -58 -96 -249 44 -249 140 0 182 182 56 243 -48 23
-59 24 -100 6z"/>
<path d="M1275 1412 c-56 -19 -95 -71 -95 -125 0 -53 26 -93 77 -118 35 -17
48 -18 80 -10 87 24 127 116 83 188 -32 53 -96 82 -145 65z"/>
<path d="M1892 1413 c-13 -2 -38 -20 -57 -38 -53 -53 -53 -127 0 -180 56 -55
125 -55 181 1 42 43 52 90 29 138 -28 59 -91 91 -153 79z"/>
<path d="M633 784 c-121 -60 -78 -244 57 -244 136 0 178 186 56 244 -43 20
-72 20 -113 0z"/>
<path d="M1251 783 c-44 -22 -71 -67 -71 -122 0 -37 6 -49 39 -82 35 -35 44
-39 89 -39 43 0 56 5 86 33 57 54 61 130 8 182 -47 48 -93 56 -151 28z"/>
<path d="M1865 781 c-65 -39 -86 -117 -50 -178 52 -89 185 -81 230 13 51 109
-78 228 -180 165z"/>
</g>
</svg>
