<?xml version="1.0" encoding="UTF-8" standalone="no"?>
<!DOCTYPE svg PUBLIC "-//W3C//DTD SVG 1.1//EN" "http://www.w3.org/Graphics/SVG/1.1/DTD/svg11.dtd">
<svg width="100%" height="100%" viewBox="0 0 400 400" version="1.1" xmlns="http://www.w3.org/2000/svg" xmlns:xlink="http://www.w3.org/1999/xlink" xml:space="preserve" xmlns:serif="http://www.serif.com/" style="fill-rule:evenodd;clip-rule:evenodd;stroke-linejoin:round;stroke-miterlimit:1.41421;">
    <g id="Logo" transform="matrix(1.11878,0,0,1.11878,-364.658,-260.946)">
        <g id="Row-3" serif:id="Row 3">
            <g transform="matrix(1,0,0,1,50,0)">
                <circle cx="404.708" cy="362.07" r="12.356" style="fill:rgb(33,33,33);"/>
            </g>
            <g transform="matrix(1,0,0,1,100,0)">
                <circle cx="404.708" cy="362.07" r="12.356" style="fill:rgb(33,33,33);"/>
            </g>
            <g transform="matrix(1,0,0,1,150,0)">
                <circle cx="404.708" cy="362.07" r="12.356" style="fill:rgb(33,33,33);"/>
            </g>
        </g>
        <g id="Row-2" serif:id="Row 2" transform="matrix(1,0,0,1,0,50)">
            <g transform="matrix(1,0,0,1,50,0)">
                <circle cx="404.708" cy="362.07" r="12.356" style="fill:rgb(33,33,33);"/>
            </g>
            <g transform="matrix(1,0,0,1,100,0)">
                <circle cx="404.708" cy="362.07" r="12.356" style="fill:rgb(33,33,33);"/>
            </g>
            <g transform="matrix(1,0,0,1,150,0)">
                <circle cx="404.708" cy="362.07" r="12.356" style="fill:rgb(33,33,33);"/>
            </g>
        </g>
        <g id="Row-1" serif:id="Row 1" transform="matrix(1,0,0,1,0,100)">
            <g transform="matrix(1,0,0,1,50,0)">
                <circle cx="404.708" cy="362.07" r="12.356" style="fill:rgb(33,33,33);"/>
            </g>
            <g transform="matrix(1,0,0,1,100,0)">
                <circle cx="404.708" cy="362.07" r="12.356" style="fill:rgb(33,33,33);"/>
            </g>
            <g transform="matrix(1,0,0,1,150,0)">
                <circle cx="404.708" cy="362.07" r="12.356" style="fill:rgb(33,33,33);"/>
            </g>
        </g>
    </g>
</svg>
